<?xml version="1.0" standalone="no"?>
<!DOCTYPE svg PUBLIC "-//W3C//DTD SVG 20010904//EN"
 "http://www.w3.org/TR/2001/REC-SVG-20010904/DTD/svg10.dtd">
<svg version="1.0" xmlns="http://www.w3.org/2000/svg"
 width="470.000000pt" height="495.000000pt" viewBox="0 0 470.000000 495.000000"
 preserveAspectRatio="xMidYMid meet">

<g transform="translate(0.000000,495.000000) scale(0.100000,-0.100000)"
fill="#000000" stroke="none">
<path d="M0 3535 c0 -1408 0 -1415 20 -1415 11 0 20 7 20 15 0 9 9 15 25 15
21 0 25 -5 25 -30 0 -39 19 -39 45 0 21 32 65 42 65 15 0 -11 11 -15 40 -15
29 0 40 4 40 15 0 21 23 19 37 -4 10 -15 10 -21 0 -24 -8 -3 -6 -7 5 -12 11
-4 33 4 63 24 53 36 55 36 55 16 0 -11 11 -15 40 -15 29 0 40 4 40 15 0 8 5
15 10 15 6 0 10 -10 10 -22 1 -34 25 -60 52 -56 19 2 23 9 23 41 0 49 11 47
20 -3 8 -49 21 -51 29 -5 10 51 30 58 21 6 -5 -33 -4 -41 9 -41 8 0 18 5 21
10 12 19 25 10 19 -14 -10 -42 31 -20 58 30 25 48 43 56 51 23 4 -16 11 -20
27 -16 45 12 32 -23 -35 -94 -81 -87 -161 -207 -220 -332 -43 -90 -79 -189
-88 -238 -3 -13 -12 -59 -21 -102 -9 -42 -25 -155 -37 -250 -11 -94 -22 -182
-26 -194 -4 -18 1 -25 19 -32 33 -12 38 -51 38 -301 0 -108 3 -279 7 -378 5
-151 9 -182 21 -182 12 0 14 12 9 68 -11 122 -20 772 -11 772 5 -1 36 -7 69
-15 33 -8 104 -18 158 -21 l97 -7 0 -247 c0 -312 10 -550 23 -550 7 0 8 130 4
378 -3 208 -4 388 0 400 4 16 16 24 44 28 36 6 39 9 39 38 1 74 21 331 36 441
17 134 58 308 67 285 3 -8 21 -72 41 -142 32 -115 66 -198 112 -269 16 -25 16
-28 -9 -80 -69 -147 -82 -256 -82 -704 l0 -370 1173 -3 1172 -2 1 167 c0 93 2
238 5 323 9 262 -18 463 -80 592 l-23 48 54 107 c61 124 114 323 94 355 -13
21 -14 28 -3 28 45 0 119 -409 123 -680 2 -121 7 -134 52 -138 l38 -3 -3 -400
c-2 -283 0 -399 8 -399 13 0 24 282 24 597 l0 203 79 0 c44 0 115 7 158 15 43
8 82 15 87 15 8 0 1 -480 -10 -712 -6 -104 -4 -118 10 -118 14 0 16 16 17 108
1 59 4 249 8 422 6 304 7 315 26 319 24 4 36 21 30 41 -3 8 -14 95 -25 193
-25 218 -41 301 -86 437 -35 104 -116 270 -176 359 -17 25 -78 94 -135 152
l-104 106 3 77 c3 75 6 80 41 76 11 -1 21 7 24 20 3 11 10 19 15 18 11 -4 11
-3 3 -72 -5 -41 -3 -60 8 -76 15 -21 15 -21 27 15 7 20 18 39 26 42 9 3 14 21
14 54 0 27 4 49 9 49 6 0 9 -19 8 -42 -2 -40 0 -43 23 -43 20 0 26 6 28 28 2
16 9 27 19 27 9 0 13 -6 9 -15 -4 -10 1 -15 14 -15 30 0 40 -29 29 -82 -7 -30
-17 -48 -27 -51 -13 -4 -12 -5 4 -6 12 0 26 -11 32 -23 l11 -23 0 23 c1 28 20
48 55 62 16 6 26 17 26 30 0 11 5 20 10 20 6 0 10 -9 10 -19 0 -25 18 -37 33
-22 15 15 27 14 27 -3 0 -7 10 -16 22 -19 13 -3 32 -8 44 -12 18 -6 22 -2 27
24 7 33 32 42 55 19 9 -9 12 -7 12 10 0 12 4 22 10 22 5 0 7 -13 4 -29 -9 -45
11 -45 29 0 12 32 20 40 33 35 10 -4 22 1 30 11 10 14 15 15 25 6 9 -9 7 -19
-10 -46 -11 -19 -21 -41 -21 -48 0 -8 11 2 23 22 12 19 28 42 35 50 7 7 19 23
26 34 14 19 14 19 35 1 16 -15 18 -21 9 -28 -10 -6 -8 -8 5 -8 9 0 17 7 17 15
0 8 -4 15 -9 15 -5 0 -7 9 -4 20 4 16 8 18 20 9 10 -9 17 -9 25 -1 6 6 17 8
24 5 8 -3 14 0 14 6 0 6 4 11 10 11 20 0 21 -49 1 -103 -11 -32 -17 -57 -15
-57 15 0 40 38 49 74 6 23 13 39 18 36 4 -3 14 8 22 24 13 25 15 200 15 1347
l0 1319 -2350 0 -2350 0 0 -1415z m3206 1384 c8 -14 -18 -31 -30 -19 -9 9 0
30 14 30 5 0 12 -5 16 -11z m962 -98 c3 -8 -1 -12 -9 -9 -7 2 -15 10 -17 17
-3 8 1 12 9 9 7 -2 15 -10 17 -17z m-3058 -141 c0 -5 -7 -10 -16 -10 -8 0 -12
5 -9 10 3 6 10 10 16 10 5 0 9 -4 9 -10z m2707 -66 c-9 -9 -28 6 -21 18 4 6
10 6 17 -1 6 -6 8 -13 4 -17z m-417 -144 c0 -5 -2 -10 -4 -10 -3 0 -8 5 -11
10 -3 6 -1 10 4 10 6 0 11 -4 11 -10z m-2715 -39 c3 -5 1 -12 -5 -16 -5 -3
-10 1 -10 9 0 18 6 21 15 7z m405 -37 c0 -17 -22 -14 -28 4 -2 7 3 12 12 12 9
0 16 -7 16 -16z m894 -131 c46 -51 124 -91 194 -100 69 -8 86 6 78 64 l-6 42
69 -44 c182 -118 404 -212 436 -185 8 7 15 17 15 23 0 7 -30 42 -67 80 l-68
68 67 -30 c75 -34 199 -71 239 -71 25 0 28 -4 38 -62 14 -84 31 -234 31 -281
l0 -38 -51 33 c-40 26 -55 43 -68 78 -25 70 -51 78 -261 82 -151 3 -179 1
-207 -14 -47 -26 -63 -55 -63 -116 l0 -54 -37 7 c-21 4 -38 8 -39 8 -1 1 -6
11 -13 22 -11 18 -12 17 -6 -7 4 -21 2 -28 -10 -28 -11 0 -15 11 -15 43 -1
121 -74 151 -337 139 l-151 -7 15 35 c68 151 132 342 134 394 0 19 2 18 22 -8
12 -17 39 -49 61 -73z m1236 -333 c0 -11 -4 -20 -9 -20 -14 0 -23 18 -16 30
10 17 25 11 25 -10z m-1073 -45 c60 -24 66 -41 71 -215 5 -189 4 -190 -94
-201 -90 -10 -256 -10 -318 0 -27 5 -55 16 -61 25 -17 23 -38 166 -39 259 0
103 18 130 95 138 118 13 307 9 346 -6z m693 -10 c32 -29 44 -91 42 -221 -1
-139 -10 -170 -49 -181 -50 -14 -389 -9 -407 6 -24 20 -35 73 -42 208 -12 206
0 216 264 209 148 -3 176 -6 192 -21z m1430 -55 c0 -5 -4 -10 -10 -10 -5 0
-10 5 -10 10 0 6 5 10 10 10 6 0 10 -4 10 -10z m-2580 -205 c14 -105 27 -142
53 -157 27 -15 376 -24 426 -11 60 15 76 50 76 161 0 70 4 99 13 105 8 5 15 7
17 5 3 -2 25 -62 50 -134 80 -223 103 -356 69 -385 -15 -12 -21 -8 -55 30 -21
23 -58 74 -81 112 -40 65 -65 90 -51 52 15 -42 84 -151 118 -186 68 -70 121
-34 110 73 -6 52 -27 147 -42 187 -6 16 -4 16 16 -2 21 -18 40 -20 206 -23
208 -4 255 4 274 45 7 15 15 82 18 150 3 68 7 123 9 123 2 0 24 -12 50 -27
l46 -28 -5 -145 c-9 -229 -53 -450 -126 -626 -57 -138 -96 -198 -191 -294
-159 -161 -339 -219 -543 -175 -117 24 -210 78 -308 176 -168 168 -230 334
-251 678 -8 138 -8 175 2 181 10 6 12 31 7 95 l-5 88 42 41 41 41 2 -35 c2
-19 8 -71 13 -115z m668 30 c2 -38 1 -67 -2 -65 -2 3 -16 36 -30 73 l-26 68
28 -3 c26 -3 27 -5 30 -73z m-1768 -135 c0 -5 -2 -10 -4 -10 -3 0 -8 5 -11 10
-3 6 -1 10 4 10 6 0 11 -4 11 -10z m972 -162 c3 -79 3 -145 2 -147 -7 -9 -71
39 -91 68 -34 50 -39 94 -16 138 17 34 73 83 93 83 4 0 10 -64 12 -142z m1498
109 c53 -41 66 -124 29 -184 -18 -29 -99 -84 -99 -67 0 4 7 50 15 103 9 53 18
111 21 129 5 35 11 38 34 19z m-440 -1032 c-21 -133 -57 -317 -71 -351 -5 -14
-18 -24 -35 -26 -15 -2 -30 -9 -32 -17 -4 -11 2 -13 27 -8 17 4 31 5 31 3 0
-12 -83 -282 -91 -300 -24 -46 -62 -76 -96 -76 -90 0 -143 73 -224 309 -24 70
-24 74 6 67 38 -10 30 11 -9 24 -33 10 -34 13 -81 168 -27 86 -56 187 -65 223
l-17 67 51 -24 c95 -43 170 -57 296 -52 114 4 116 4 213 53 54 26 100 52 103
57 13 20 11 -2 -6 -117z m1010 -39 c0 -9 -30 -14 -35 -6 -4 6 3 10 14 10 12 0
21 -2 21 -4z m-325 -25 c3 -5 1 -12 -5 -16 -5 -3 -10 1 -10 9 0 18 6 21 15 7z
m482 -13 c-3 -8 -6 -5 -6 6 -1 11 2 17 5 13 3 -3 4 -12 1 -19z m151 -19 c2
-23 2 -23 -13 -5 -18 24 -20 39 -2 34 6 -3 13 -15 15 -29z m293 -101 l-31 -30
0 26 c0 16 5 26 15 26 8 0 15 7 15 15 0 8 6 24 13 36 11 19 12 18 15 -12 3
-24 -3 -38 -27 -61z m99 60 c0 -5 -7 -8 -15 -8 -15 0 -20 21 -8 33 7 7 23 -11
23 -25z m-310 -54 c0 -15 -18 -18 -44 -8 -19 7 -21 35 -3 53 10 10 15 8 30
-10 9 -11 17 -27 17 -35z m-443 -9 c-11 -23 -13 -23 -40 -7 -32 19 -32 48 1
45 12 -2 22 3 22 10 1 7 6 5 14 -6 11 -14 11 -23 3 -42z m-2835 -57 c-9 -9
-12 -7 -12 12 0 19 3 21 12 12 9 -9 9 -15 0 -24z m-375 0 c-3 -8 -6 -5 -6 6
-1 11 2 17 5 13 3 -3 4 -12 1 -19z m593 -27 c0 -5 -7 -14 -15 -21 -13 -10 -15
-9 -15 9 0 12 6 21 15 21 8 0 15 -4 15 -9z m1870 -736 c348 -25 590 -52 607
-68 8 -9 -53 -133 -92 -187 -33 -45 -38 -73 -8 -49 10 9 18 0 38 -43 25 -55
65 -196 65 -230 0 -22 5 -22 -207 -3 -300 26 -519 35 -887 35 -388 0 -604 -9
-945 -40 -118 -11 -221 -20 -227 -20 -23 0 11 168 51 253 22 46 30 54 47 49
24 -6 23 -4 -30 70 -19 27 -47 78 -62 115 l-29 68 22 7 c46 15 311 41 627 62
126 9 831 -4 1030 -19z"/>
<path d="M1924 3831 c-31 -13 -72 -67 -85 -110 -32 -109 44 -191 176 -191 150
0 202 182 79 276 -28 21 -49 29 -92 31 -32 1 -66 -1 -78 -6z m133 -27 c46 -22
83 -78 83 -127 0 -110 -107 -157 -227 -100 -65 30 -78 113 -29 186 39 57 105
73 173 41z"/>
<path d="M1971 3701 c-19 -12 -6 -41 19 -41 16 0 21 5 18 22 -3 25 -17 32 -37
19z"/>
<path d="M2545 3832 c-64 -41 -95 -93 -95 -158 0 -81 65 -134 162 -134 66 0
115 24 146 70 20 29 23 44 20 88 -8 88 -63 143 -150 149 -40 3 -60 -1 -83 -15z
m154 -29 c33 -24 61 -79 61 -118 0 -93 -114 -153 -214 -111 -85 35 -100 131
-33 205 49 53 132 63 186 24z"/>
<path d="M2594 3695 c-4 -9 -2 -21 4 -27 15 -15 44 -1 40 19 -4 23 -36 29 -44
8z"/>
<path d="M2564 3059 c33 -26 33 -38 -1 -66 -19 -15 -23 -22 -13 -23 27 0 60
30 60 55 0 24 -33 55 -59 55 -8 0 -3 -9 13 -21z"/>
<path d="M2225 3039 c-94 -15 -165 -32 -165 -39 0 -3 53 2 118 11 64 10 169
19 232 19 74 1 106 5 90 10 -32 10 -210 10 -275 -1z"/>
<path d="M1990 3020 c-12 -12 -20 -29 -18 -38 4 -21 71 -47 95 -37 14 6 9 10
-22 17 -47 10 -59 26 -38 50 24 26 8 33 -17 8z"/>
<path d="M3784 2214 c3 -9 6 -18 6 -20 0 -3 5 -2 10 1 16 10 12 35 -6 35 -11
0 -14 -5 -10 -16z"/>
<path d="M3683 2213 c-18 -7 -16 -33 2 -33 8 0 15 9 15 20 0 11 -1 20 -2 19
-2 0 -9 -3 -15 -6z"/>
<path d="M3850 2181 c0 -11 -4 -23 -10 -26 -20 -13 -9 -23 13 -12 17 8 22 17
19 34 -5 28 -22 31 -22 4z"/>
<path d="M4280 2140 c0 -5 7 -10 15 -10 8 0 15 5 15 10 0 6 -7 10 -15 10 -8 0
-15 -4 -15 -10z"/>
<path d="M228 2103 c6 -2 18 -2 25 0 6 3 1 5 -13 5 -14 0 -19 -2 -12 -5z"/>
<path d="M832 2070 c0 -14 2 -19 5 -12 2 6 2 18 0 25 -3 6 -5 1 -5 -13z"/>
<path d="M3815 2060 c4 -6 11 -8 16 -5 14 9 11 15 -7 15 -8 0 -12 -5 -9 -10z"/>
</g>
</svg>
